/* XPM */
static char * gottet_xpm[] = {
"32 32 142 2",
"  	c None",
". 	c #926C56",
"+ 	c #8E6954",
"@ 	c #8F6A54",
"# 	c #946F57",
"$ 	c #EEA075",
"% 	c #F38D55",
"& 	c #EC9F74",
"* 	c #594335",
"= 	c #BC8467",
"- 	c #F0925F",
"; 	c #E6A37E",
"> 	c #EC7331",
", 	c #705242",
"' 	c #D39472",
") 	c #E29A72",
"! 	c #6C5040",
"~ 	c #D19371",
"{ 	c #E19971",
"] 	c #6D5141",
"^ 	c #D29472",
"/ 	c #EA9E73",
"( 	c #523D30",
"_ 	c #B58063",
": 	c #EF925E",
"< 	c #E2A07C",
"[ 	c #6E5141",
"} 	c #513D30",
"| 	c #725543",
"1 	c #31241D",
"2 	c #B81212",
"3 	c #B91111",
"4 	c #BA1111",
"5 	c #730C0C",
"6 	c #840D0D",
"7 	c #C01212",
"8 	c #BD1111",
"9 	c #BA1212",
"0 	c #A51010",
"a 	c #9C0F0F",
"b 	c #9D0F0F",
"c 	c #CC1414",
"d 	c #CD1414",
"e 	c #C11212",
"f 	c #000000",
"g 	c #C41313",
"h 	c #C31313",
"i 	c #C41212",
"j 	c #C61313",
"k 	c #E5A27D",
"l 	c #30241D",
"m 	c #730B0B",
"n 	c #B21111",
"o 	c #B61111",
"p 	c #CB1313",
"q 	c #710B0B",
"r 	c #E8A47F",
"s 	c #E59B73",
"t 	c #E49B73",
"u 	c #372921",
"v 	c #5D728A",
"w 	c #97C0E9",
"x 	c #8EB7E3",
"y 	c #8DB7E2",
"z 	c #8FBAE4",
"A 	c #87A9CA",
"B 	c #750C0C",
"C 	c #CD1313",
"D 	c #C51313",
"E 	c #CC1313",
"F 	c #946D57",
"G 	c #725544",
"H 	c #8BAFD4",
"I 	c #549AE3",
"J 	c #539AE3",
"K 	c #8DB7E1",
"L 	c #770C0C",
"M 	c #B81111",
"N 	c #700B0B",
"O 	c #6D5040",
"P 	c #89ADD1",
"Q 	c #8CB5DF",
"R 	c #B71111",
"S 	c #6A0B0B",
"T 	c #8F6B54",
"U 	c #6D5140",
"V 	c #87A9CC",
"W 	c #5EA1E6",
"X 	c #96BDE6",
"Y 	c #B41111",
"Z 	c #710A0A",
"` 	c #BC1212",
" .	c #6B0A0A",
"..	c #B78164",
"+.	c #B27D61",
"@.	c #282F37",
"#.	c #88AACD",
"$.	c #89ACD0",
"%.	c #52657A",
"&.	c #2E0404",
"*.	c #A31010",
"=.	c #A00F0F",
"-.	c #485967",
";.	c #5A6D80",
">.	c #586A7D",
",.	c #586B7D",
"'.	c #42515F",
").	c #5A6E80",
"!.	c #5C6F82",
"~.	c #576B7D",
"{.	c #91BEEB",
"].	c #74B0ED",
"^.	c #90BDEA",
"/.	c #3E4C59",
"(.	c #7A9ABA",
"_.	c #7DB3EB",
":.	c #75B0ED",
"<.	c #97BDE3",
"[.	c #99BFE5",
"}.	c #7999B8",
"|.	c #677C92",
"1.	c #4F5F70",
"2.	c #8AADD2",
"3.	c #8CB5E0",
"4.	c #64798E",
"5.	c #4C5C6C",
"6.	c #657A8F",
"7.	c #4D5D6D",
"8.	c #8FBBE8",
"9.	c #394652",
"0.	c #7695B4",
"a.	c #7CB3EA",
"b.	c #95BAE0",
"c.	c #7594B3",
"d.	c #445462",
"e.	c #546577",
"f.	c #516374",
"g.	c #526475",
"h.	c #55687A",
"i.	c #272F37",
"j.	c #56697B",
"k.	c #526374",
"                                                                ",
"                                                                ",
"        . + @       # @ + .                                     ",
"      $ % % % & * = - % % % ;                                   ",
"    . % > > > % , ' > > > > )                                   ",
"    + % > > > % ! ~ > > > > {                                   ",
"    @ % > > > % ] ^ > > > > {                                   ",
"      & % % % / ( _ : % % % <                                   ",
"      * , ! [ }     | [ ! , 1                                   ",
"      = ' ~ ^ _     2 3 3 4 5   6 7 8 8 9                       ",
"    # - > > > : | 2 0 a a b c   d b a a 0 2                     ",
"    @ % > > > % ] 3 a a a a e f g a a a a 4                     ",
"    + % > > > % ! 3 a a a a e f h a a a a 4                     ",
"    . % > > > % , 4 b a a a i f j a a a b 4                     ",
"      k ) { { < l m c e e i n   o i e e p q                     ",
"        f f f         f f f       f f f f                       ",
"      r s t s k u v w x y z A   9 j g g c B   C D g g E         ",
"    F % > > > % G H I J J J K f j a a a b 4 L M a a a M N       ",
"    + % > > > % O P J J J J Q f h a a a a 3 m R a a a R S       ",
"    + % > > > % O P J J J J Q f h a a a a 3 m R a a a R S       ",
"    T - > > > : U V W J J I X f c b a a 0 Y Z ` a a a `  .      ",
"      ..^ ~ ~ +.  @.#.$.$.P %.  B 4 3 3 Y &.  *.4 4 4 =.        ",
"      -.;.>.,.'.    ).,.>.;.      !.>.>.~.                      ",
"      {.].].].^./.(._.].].:.<.  [.:.].]._.}.                    ",
"    |.].J J J ].1.2.J J J J 3.f x J J J J 2.                    ",
"    4.].J J J ].5.$.J J J J Q f y J J J J 2.                    ",
"    6.].J J J ].7.P J J J J Q f x J J J J 2.                    ",
"      ^.].].].8.9.0.a.].].:.b.  <.:.].].a.c.                    ",
"      d.e.f.g./.    h.g.f.e.i.    j.k.k.g.                      ",
"                                                                ",
"                                                                ",
"                                                                "};
