<?xml version="1.0" encoding="UTF-8" standalone="no"?>
<!-- Created with Inkscape (http://www.inkscape.org/) -->

<svg
   xmlns:dc="http://purl.org/dc/elements/1.1/"
   xmlns:cc="http://creativecommons.org/ns#"
   xmlns:rdf="http://www.w3.org/1999/02/22-rdf-syntax-ns#"
   xmlns:svg="http://www.w3.org/2000/svg"
   xmlns="http://www.w3.org/2000/svg"
   version="1.1"
   width="48"
   height="48"
   id="svg2">
  <metadata
     id="metadata32">
    <rdf:RDF>
      <cc:Work
         rdf:about="">
        <dc:format>image/svg+xml</dc:format>
        <dc:type
           rdf:resource="http://purl.org/dc/dcmitype/StillImage" />
        <dc:title></dc:title>
        <dc:title>Gottet icon</dc:title>
        <dc:date>2013-02-28</dc:date>
        <dc:creator>
          <cc:Agent>
            <dc:title>Graeme Gott</dc:title>
          </cc:Agent>
        </dc:creator>
        <cc:license
           rdf:resource="http://www.gnu.org/licenses/gpl-3.0.txt" />
      </cc:Work>
    </rdf:RDF>
  </metadata>
  <defs
     id="defs30">
    <filter
       x="-0.36000001"
       y="-0.36000001"
       width="1.72"
       height="1.72"
       color-interpolation-filters="sRGB"
       id="shadowBlur">
      <feGaussianBlur
         stdDeviation="1.2"
         id="feGaussianBlur3839" />
    </filter>
  </defs>
  <rect
     width="8"
     height="8"
     rx="1"
     ry="1"
     x="24.5"
     y="34.5"
     id="rect3031"
     style="fill:#000000;fill-opacity:1;stroke:#000000;stroke-opacity:1;filter:url(#shadowBlur)" />
  <rect
     width="8"
     height="8"
     rx="1"
     ry="1"
     x="34.5"
     y="24.5"
     id="rect3023"
     style="fill:#000000;fill-opacity:1;stroke:#000000;stroke-opacity:1;filter:url(#shadowBlur)" />
  <rect
     width="8"
     height="8"
     rx="1"
     ry="1"
     x="14.5"
     y="34.5"
     id="rect3029"
     style="fill:#000000;fill-opacity:1;stroke:#000000;stroke-opacity:1;filter:url(#shadowBlur)" />
  <rect
     width="8"
     height="8"
     rx="1"
     ry="1"
     x="24.5"
     y="24.5"
     id="rect3021"
     style="fill:#000000;fill-opacity:1;stroke:#000000;stroke-opacity:1;filter:url(#shadowBlur)" />
  <rect
     width="8"
     height="8"
     rx="1"
     ry="1"
     x="4.5"
     y="34.5"
     id="rect3027"
     style="fill:#000000;fill-opacity:1;stroke:#000000;stroke-opacity:1;filter:url(#shadowBlur)" />
  <rect
     width="8"
     height="8"
     rx="1"
     ry="1"
     x="14.5"
     y="24.5"
     id="rect3025"
     style="fill:#000000;fill-opacity:1;stroke:#000000;stroke-opacity:1;filter:url(#shadowBlur)" />
  <rect
     width="8"
     height="8"
     rx="1"
     ry="1"
     x="24.5"
     y="14.5"
     id="rect3019"
     style="fill:#000000;fill-opacity:1;stroke:#000000;stroke-opacity:1;filter:url(#shadowBlur)" />
  <rect
     width="8"
     height="8"
     rx="1"
     ry="1"
     x="4.5"
     y="24.5"
     id="rect3015"
     style="fill:#000000;fill-opacity:1;stroke:#000000;stroke-opacity:1;filter:url(#shadowBlur)" />
  <rect
     width="8"
     height="8"
     rx="1"
     ry="1"
     x="14.5"
     y="14.5"
     id="rect3017"
     style="fill:#000000;fill-opacity:1;stroke:#000000;stroke-opacity:1;filter:url(#shadowBlur)" />
  <rect
     width="8"
     height="8"
     rx="1"
     ry="1"
     x="4.5"
     y="14.5"
     id="rect3013"
     style="fill:#000000;fill-opacity:1;stroke:#000000;stroke-opacity:1;filter:url(#shadowBlur)" />
  <rect
     width="8"
     height="8"
     rx="1"
     ry="1"
     x="4.5"
     y="4.5"
     id="rect3009"
     style="fill:#000000;fill-opacity:1;stroke:#000000;stroke-opacity:1;filter:url(#shadowBlur)" />
  <rect
     width="8"
     height="8"
     rx="1"
     ry="1"
     x="14.5"
     y="4.5"
     id="rect3011"
     style="fill:#000000;fill-opacity:1;stroke:#000000;stroke-opacity:1;filter:url(#shadowBlur)" />
  <rect
     width="7.5"
     height="7.5"
     rx="1"
     ry="1"
     x="4.5"
     y="4.5"
     id="rect4"
     style="fill:#ec7331;stroke:#ffbd98" />
  <rect
     width="7.5"
     height="7.5"
     rx="1"
     ry="1"
     x="14.5"
     y="4.5"
     id="rect6"
     style="fill:#ec7331;stroke:#ffbd98" />
  <rect
     width="7.5"
     height="7.5"
     rx="1"
     ry="1"
     x="4.5"
     y="14.5"
     id="rect8"
     style="fill:#ec7331;stroke:#ffbd98" />
  <rect
     width="7.5"
     height="7.5"
     rx="1"
     ry="1"
     x="4.5"
     y="24.5"
     id="rect10"
     style="fill:#ec7331;stroke:#ffbd98" />
  <rect
     width="7.5"
     height="7.5"
     rx="1"
     ry="1"
     x="14.5"
     y="14.5"
     id="rect12"
     style="fill:#9c0f0f;stroke:#ea1616" />
  <rect
     width="7.5"
     height="7.5"
     rx="1"
     ry="1"
     x="24.5"
     y="14.5"
     id="rect14"
     style="fill:#9c0f0f;stroke:#ea1616" />
  <rect
     width="7.5"
     height="7.5"
     rx="1"
     ry="1"
     x="24.5"
     y="24.5"
     id="rect16"
     style="fill:#9c0f0f;stroke:#ea1616" />
  <rect
     width="7.5"
     height="7.5"
     rx="1"
     ry="1"
     x="34.5"
     y="24.5"
     id="rect18"
     style="fill:#9c0f0f;stroke:#ea1616" />
  <rect
     width="7.5"
     height="7.5"
     rx="1"
     ry="1"
     x="14.5"
     y="24.5"
     id="rect20"
     style="fill:#539ae3;stroke:#b3d9ff" />
  <rect
     width="7.5"
     height="7.5"
     rx="1"
     ry="1"
     x="4.5"
     y="34.5"
     id="rect22"
     style="fill:#539ae3;stroke:#b3d9ff" />
  <rect
     width="7.5"
     height="7.5"
     rx="1"
     ry="1"
     x="14.5"
     y="34.5"
     id="rect24"
     style="fill:#539ae3;stroke:#b3d9ff" />
  <rect
     width="7.5"
     height="7.5"
     rx="1"
     ry="1"
     x="24.5"
     y="34.5"
     id="rect26"
     style="fill:#539ae3;stroke:#b3d9ff" />
</svg>
